<svg width="512" height="531" viewBox="0 0 512 531" fill="none" xmlns="http://www.w3.org/2000/svg">
<g filter="url(#filter0_d_340_0)">
<path d="M256 259.71C244.347 265.081 234.533 277.016 229.627 283.581C238.213 293.129 248.027 304.468 256 317C263.973 304.468 273.787 292.532 282.373 283.581C277.467 277.016 267.653 265.081 256 259.71ZM288.507 247.177C273.787 248.371 263.36 254.935 263.36 254.935C263.36 254.935 274.4 261.5 287.893 278.806C296.48 269.855 302 264.484 302 264.484L288.507 247.177ZM223.493 247.177L210 263.887C210 263.887 216.133 269.258 224.107 278.21C237.6 261.5 248.64 254.339 248.64 254.339C248.64 254.339 238.213 248.371 223.493 247.177ZM256 206L228.4 240.613C235.76 241.21 245.573 243 256 250.161C266.427 243 276.24 241.21 283.6 240.613L256 206Z" fill="url(#paint0_angular_340_0)"/>
</g>
<defs>
<filter id="filter0_d_340_0" x="0" y="0" width="512" height="531" filterUnits="userSpaceOnUse" color-interpolation-filters="sRGB">
<feFlood flood-opacity="0" result="BackgroundImageFix"/>
<feColorMatrix in="SourceAlpha" type="matrix" values="0 0 0 0 0 0 0 0 0 0 0 0 0 0 0 0 0 0 127 0" result="hardAlpha"/>
<feOffset dy="4"/>
<feGaussianBlur stdDeviation="105"/>
<feColorMatrix type="matrix" values="0 0 0 0 1 0 0 0 0 1 0 0 0 0 1 0 0 0 1 0"/>
<feBlend mode="normal" in2="BackgroundImageFix" result="effect1_dropShadow_340_0"/>
<feBlend mode="normal" in="SourceGraphic" in2="effect1_dropShadow_340_0" result="shape"/>
</filter>
<radialGradient id="paint0_angular_340_0" cx="0" cy="0" r="1" gradientUnits="userSpaceOnUse" gradientTransform="translate(256 261.5) rotate(90) scale(55.5 46)">
<stop stop-color="#EDEDED"/>
<stop offset="1" stop-color="#A6A6A6"/>
</radialGradient>
</defs>
</svg>
