<svg width="20" height="20" viewBox="0 0 20 20" fill="none" xmlns="http://www.w3.org/2000/svg">
<path d="M1.25244 5.4981L9.99904 9.87085L18.7456 5.4981C18.7133 4.94078 18.469 4.41693 18.063 4.03383C17.6569 3.65074 17.1197 3.4374 16.5615 3.4375H3.43663C2.87837 3.4374 2.3412 3.65074 1.93513 4.03383C1.52906 4.41693 1.28482 4.94078 1.25244 5.4981Z" fill="#A0AEBB"/>
<path d="M18.75 7.94043L10.0001 12.3154L1.25024 7.94043V14.3738C1.25024 14.9539 1.48071 15.5103 1.89094 15.9206C2.30117 16.3308 2.85756 16.5612 3.43771 16.5612H16.5625C17.1427 16.5612 17.6991 16.3308 18.1093 15.9206C18.5195 15.5103 18.75 14.9539 18.75 14.3738V7.94043Z" fill="#A0AEBB"/>
</svg>
