<svg width="20" height="20" viewBox="0 0 20 20" fill="none" xmlns="http://www.w3.org/2000/svg">
<path d="M17.2562 12.253C17.1602 11.586 16.6452 11.066 15.9822 10.911C13.4052 10.307 12.7592 8.823 12.6502 7.177C12.1932 7.092 11.3802 7 10.0002 7C8.62015 7 7.80715 7.092 7.35015 7.177C7.24115 8.823 6.59515 10.307 4.01815 10.911C3.35515 11.067 2.84015 11.586 2.74415 12.253L2.24715 15.695C2.07215 16.907 2.96215 18 4.20015 18H15.8002C17.0372 18 17.9282 16.907 17.7532 15.695L17.2562 12.253ZM10.0002 15.492C8.60515 15.492 7.47415 14.372 7.47415 12.992C7.47415 11.612 8.60515 10.492 10.0002 10.492C11.3952 10.492 12.5262 11.612 12.5262 12.992C12.5262 14.372 11.3942 15.492 10.0002 15.492ZM19.9502 6C19.9262 4.5 16.1082 2.001 10.0002 2C3.89115 2.001 0.0731507 4.5 0.0501507 6C0.0271507 7.5 0.0711508 9.452 2.58515 9.127C5.52615 8.746 5.34515 7.719 5.34515 6.251C5.34515 5.227 7.73715 4.98 10.0002 4.98C12.2632 4.98 14.6542 5.227 14.6552 6.251C14.6552 7.719 14.4742 8.746 17.4152 9.127C19.9282 9.452 19.9732 7.5 19.9502 6Z" fill="#A0AEBB"/>
</svg>
