<svg width="68" height="68" viewBox="0 0 68 68" fill="none" xmlns="http://www.w3.org/2000/svg">
<rect x="2" y="2" width="64" height="64" rx="32" stroke="#A0AEBB" stroke-width="4"/>
<g clip-path="url(#clip0_130_34005)">
<path d="M52.02 41.428V40C52.02 38.8973 51.1226 38 50.02 38H46.6866C45.816 38 45.708 37.106 45.704 36.6933C45.904 35.826 46.02 34.9273 46.02 34C46.02 33.2647 46.618 32.6667 47.3533 32.6667H50.02C51.1226 32.6667 52.02 31.7693 52.02 30.6667V27.9053C53.1666 27.6073 54.02 26.572 54.02 25.3333C54.02 23.8627 52.824 22.6667 51.3533 22.6667C49.8826 22.6667 48.6866 23.8627 48.6866 25.3333C48.6866 26.572 49.54 27.6073 50.6866 27.9053V30.6667C50.6866 31.034 50.3873 31.3333 50.02 31.3333H47.3533C46.7786 31.3333 46.2493 31.52 45.8133 31.8307C45.1733 28.346 43.0253 25.39 40.0706 23.6547C40.224 23.0873 40.7373 22.6667 41.3526 22.6667H43.3526C44.4553 22.6667 45.3526 21.7693 45.3526 20.6667V19.2387C46.4993 18.9407 47.3526 17.9053 47.3526 16.6667C47.3526 15.196 46.1566 14 44.686 14C43.2153 14 42.0193 15.196 42.0193 16.6667C42.0193 17.9053 42.8726 18.9407 44.0193 19.2387V20.6667C44.0193 21.034 43.72 21.3333 43.3526 21.3333H41.3526C40.2233 21.3333 39.262 22.0413 38.8733 23.0353C37.5813 22.4607 36.1686 22.116 34.686 22.034V18.6667C34.686 17.196 33.49 16 32.0193 16H29.258C28.96 14.8533 27.9246 14 26.686 14C25.2153 14 24.0193 15.196 24.0193 16.6667C24.0193 18.1373 25.2153 19.3333 26.686 19.3333C27.9246 19.3333 28.96 18.48 29.258 17.3333H32.0193C32.7546 17.3333 33.3526 17.9313 33.3526 18.6667V22.034C30.08 22.2153 27.1593 23.7073 25.1006 26H22.0193C19.636 26 17.668 24.2033 17.39 21.894C18.5173 21.5833 19.3526 20.5587 19.3526 19.3333C19.3526 17.8627 18.1566 16.6667 16.686 16.6667C15.2153 16.6667 14.0193 17.8627 14.0193 19.3333C14.0193 20.5833 14.8866 21.6267 16.0486 21.9147C16.342 24.9513 18.9066 27.3333 22.0193 27.3333H24.0486C22.7686 29.2413 22.0193 31.5347 22.0193 34C22.0193 36.4653 22.7686 38.7587 24.0486 40.6667H19.258C18.96 39.52 17.9246 38.6667 16.686 38.6667C15.2153 38.6667 14.0193 39.8627 14.0193 41.3333C14.0193 42.804 15.2153 44 16.686 44C17.9246 44 18.96 43.1467 19.258 42H25.1006C27.146 44.278 30.0426 45.766 33.2893 45.9633C32.9933 47.5007 31.642 48.6667 30.0193 48.6667H25.258C24.96 47.52 23.9246 46.6667 22.686 46.6667C21.2153 46.6667 20.0193 47.8627 20.0193 49.3333C20.0193 50.804 21.2153 52 22.686 52C23.9246 52 24.96 51.1467 25.258 50H30.0193C32.3766 50 34.326 48.242 34.6373 45.9687C36.138 45.8913 37.5666 45.546 38.8733 44.9653C39.262 45.9587 40.2233 46.6667 41.3526 46.6667C41.72 46.6667 42.0193 46.966 42.0193 47.3333V48.7613C40.8726 49.0593 40.0193 50.0947 40.0193 51.3333C40.0193 52.804 41.2153 54 42.686 54C44.1566 54 45.3526 52.804 45.3526 51.3333C45.3526 50.0947 44.4993 49.0593 43.3526 48.7613V47.3333C43.3526 46.2307 42.4553 45.3333 41.3526 45.3333C40.7373 45.3333 40.224 44.9127 40.0706 44.3453C42.2913 43.0413 44.0646 41.0533 45.0766 38.662C45.4786 39.086 46.0286 39.3333 46.686 39.3333H50.0193C50.3866 39.3333 50.686 39.6327 50.686 40V41.428C49.5393 41.726 48.686 42.7613 48.686 44C48.686 45.4707 49.882 46.6667 51.3526 46.6667C52.8233 46.6667 54.0193 45.4707 54.0193 44C54.02 42.7613 53.1666 41.726 52.02 41.428V41.428ZM28.02 40.6667V32.6667C28.02 32.2987 28.3186 32 28.6866 32H29.3533V30C29.3533 27.4267 31.4466 25.3333 34.02 25.3333C36.5933 25.3333 38.6866 27.4267 38.6866 30V32H39.3533C39.7213 32 40.02 32.2987 40.02 32.6667V40.6667C40.02 41.0347 39.7213 41.3333 39.3533 41.3333H28.6866C28.3186 41.3333 28.02 41.0347 28.02 40.6667Z" fill="#A0AEBB"/>
<path d="M32.02 30.0001C32.02 28.8974 32.9173 28.0001 34.02 28.0001C35.1226 28.0001 36.02 28.8974 36.02 30.0001V32.0001H37.3533V30.0001C37.3533 28.1621 35.858 26.6667 34.02 26.6667C32.182 26.6667 30.6866 28.1621 30.6866 30.0001V32.0001H32.02V30.0001Z" fill="#A0AEBB"/>
<path d="M32.6865 36H35.3532V37.3333H32.6865V36Z" fill="#A0AEBB"/>
<path d="M35.3535 33.3333H32.6868H30.0202H29.3535V39.9999H38.6868V33.3333H38.0202H35.3535ZM36.6868 37.9999C36.6868 38.3679 36.3882 38.6666 36.0202 38.6666H32.0202C31.6522 38.6666 31.3535 38.3679 31.3535 37.9999V35.3333C31.3535 34.9653 31.6522 34.6666 32.0202 34.6666H36.0202C36.3882 34.6666 36.6868 34.9653 36.6868 35.3333V37.9999Z" fill="#A0AEBB"/>
</g>
<defs>
<clipPath id="clip0_130_34005">
<rect width="40" height="40" fill="white" transform="translate(14 14)"/>
</clipPath>
</defs>
</svg>
