<svg width="68" height="68" viewBox="0 0 68 68" fill="none" xmlns="http://www.w3.org/2000/svg">
<rect x="2" y="2" width="64" height="64" rx="32" stroke="#A0AEBB" stroke-width="4"/>
<g clip-path="url(#clip0_130_34008)">
<path d="M41.141 24.2864C40.7467 24.2868 40.4272 24.6064 40.4268 25.0006V26.4291C40.4268 26.8235 40.7466 27.1433 41.141 27.1433C41.5354 27.1433 41.8552 26.8235 41.8552 26.4291V25.0006C41.8548 24.6064 41.5353 24.2868 41.141 24.2864Z" fill="#A0AEBB"/>
<path d="M32.57 24.2864C32.1757 24.2868 31.8562 24.6064 31.8557 25.0006V26.4291C31.8557 26.8235 32.1755 27.1433 32.57 27.1433C32.9644 27.1433 33.2842 26.8235 33.2842 26.4291V25.0006C33.2837 24.6064 32.9642 24.2868 32.57 24.2864Z" fill="#A0AEBB"/>
<path d="M27.5703 40.7139C27.5703 34.0188 33.0173 28.5718 39.7124 28.5718C42.5921 28.5691 45.3782 29.5944 47.5691 31.4633V17.1439C47.5677 15.9612 46.6091 15.0026 45.4263 15.0012H22.5706C21.3878 15.0026 20.4292 15.9612 20.4279 17.1439V41.4281H18.9994V21.4294C17.8166 21.4307 16.858 22.3893 16.8567 23.5721V42.8566H27.7597C27.6333 42.1493 27.57 41.4323 27.5703 40.7139ZM28.9988 27.8576H27.5703V23.5721H28.9988V27.8576ZM34.7127 26.4291C34.7127 27.6125 33.7534 28.5718 32.57 28.5718C31.3866 28.5718 30.4273 27.6125 30.4273 26.4291V25.0006C30.4273 23.8172 31.3866 22.8579 32.57 22.8579C33.7534 22.8579 34.7127 23.8172 34.7127 25.0006V26.4291ZM37.5697 27.8576H36.1412V23.5721H37.5697V27.8576ZM43.2836 26.4291C43.2836 27.6125 42.3243 28.5718 41.1409 28.5718C39.9575 28.5718 38.9982 27.6125 38.9982 26.4291V25.0006C38.9982 23.8172 39.9575 22.8579 41.1409 22.8579C42.3243 22.8579 43.2836 23.8172 43.2836 25.0006V26.4291ZM46.1406 27.8576H44.7121V23.5721H46.1406V27.8576ZM27.5703 16.4297H28.9988V17.8582H27.5703V16.4297ZM24.7133 16.4297H26.1418V17.8582H24.7133V16.4297ZM21.8564 16.4297H23.2849V17.8582H21.8564V16.4297ZM21.8564 19.2867H46.1406V20.7151H21.8564V19.2867ZM21.8564 25.0006C21.8564 23.8172 22.8157 22.8579 23.9991 22.8579C25.1825 22.8579 26.1418 23.8172 26.1418 25.0006V26.4291C26.1418 27.6125 25.1825 28.5718 23.9991 28.5718C22.8157 28.5718 21.8564 27.6125 21.8564 26.4291V25.0006ZM23.9991 30.0003V34.2857H22.5706V30.0003H23.9991ZM26.1418 39.2854C26.1418 40.4688 25.1825 41.4281 23.9991 41.4281C22.8157 41.4281 21.8564 40.4688 21.8564 39.2854V37.8569C21.8564 36.6735 22.8157 35.7142 23.9991 35.7142C25.1825 35.7142 26.1418 36.6735 26.1418 37.8569V39.2854ZM26.8561 34.2857H25.4276V30.0003H26.8561V34.2857Z" fill="#A0AEBB"/>
<path d="M23.9994 27.1433C24.3937 27.1429 24.7132 26.8234 24.7136 26.4291V25.0006C24.7136 24.6062 24.3938 24.2864 23.9994 24.2864C23.605 24.2864 23.2852 24.6062 23.2852 25.0006V26.4291C23.2856 26.8234 23.6051 27.1429 23.9994 27.1433Z" fill="#A0AEBB"/>
<path d="M23.9994 37.1428C23.6051 37.1433 23.2856 37.4628 23.2852 37.8571V39.2855C23.2852 39.68 23.605 39.9998 23.9994 39.9998C24.3938 39.9998 24.7136 39.68 24.7136 39.2855V37.8571C24.7132 37.4628 24.3937 37.1433 23.9994 37.1428Z" fill="#A0AEBB"/>
<path d="M14 44.2852V45.7136C14.0009 46.5022 14.64 47.1412 15.4285 47.1421H29.4155C28.8567 46.2508 28.4165 45.2904 28.1063 44.2852H14Z" fill="#A0AEBB"/>
<path d="M39.7124 30.0002C33.7954 30.0002 28.9988 34.7969 28.9988 40.7139C28.9988 46.6308 33.7954 51.4275 39.7124 51.4275C45.6293 51.4275 50.426 46.6308 50.426 40.7139C50.4193 34.7997 45.6266 30.0069 39.7124 30.0002ZM39.7124 49.999C34.5843 49.999 30.4273 45.8419 30.4273 40.7139C30.4273 35.5858 34.5843 31.4287 39.7124 31.4287C44.8405 31.4287 48.9975 35.5858 48.9975 40.7139C48.9917 45.8394 44.8381 49.9932 39.7124 49.999Z" fill="#A0AEBB"/>
<path d="M52.5692 47.1421C53.3607 47.141 54.0014 46.4983 54.0002 45.7068C54.0002 45.6844 53.9996 45.662 53.9985 45.6396L53.932 44.2852H51.3193C51.0091 45.2904 50.5691 46.2508 50.0103 47.1421H52.5692Z" fill="#A0AEBB"/>
<path d="M36.8562 41.4282H42.5701V44.2852H36.8562V41.4282Z" fill="#A0AEBB"/>
<path d="M49.1683 48.323C48.6203 49.0026 48.0011 49.6218 47.3215 50.1698L51.7677 54.6163C52.2777 55.1263 53.1046 55.1263 53.6145 54.6163C54.1245 54.1064 54.1245 53.2795 53.6145 52.7695L49.1683 48.323Z" fill="#A0AEBB"/>
<path d="M39.7121 32.8574C35.373 32.8574 31.8555 36.375 31.8555 40.7141C31.8555 45.0532 35.373 48.5707 39.7121 48.5707C44.0512 48.5707 47.5688 45.0532 47.5688 40.7141C47.5639 36.377 44.0492 32.8623 39.7121 32.8574ZM43.9976 44.9995C43.9976 45.394 43.6778 45.7138 43.2833 45.7138H36.1409C35.7465 45.7138 35.4267 45.394 35.4267 44.9995V40.7141C35.4267 40.3196 35.7465 39.9998 36.1409 39.9998H41.8548V39.2856C41.8554 38.1022 40.8964 37.1424 39.713 37.142C38.9465 37.1416 38.2383 37.5507 37.8556 38.2148L36.6191 37.4995C37.605 35.7913 39.789 35.2057 41.4973 36.1916C42.6027 36.8297 43.2837 38.0092 43.2833 39.2856V39.9998C43.6778 39.9998 43.9976 40.3196 43.9976 40.7141V44.9995Z" fill="#A0AEBB"/>
<path d="M51.1408 23.5722C51.1394 22.3894 50.1808 21.4308 48.998 21.4294V32.8981C49.9265 33.9983 50.6521 35.2547 51.1408 36.6088V23.5722Z" fill="#A0AEBB"/>
</g>
<defs>
<clipPath id="clip0_130_34008">
<rect width="40" height="40" fill="white" transform="translate(14 15)"/>
</clipPath>
</defs>
</svg>
