<svg width="68" height="68" viewBox="0 0 68 68" fill="none" xmlns="http://www.w3.org/2000/svg">
<rect x="2" y="2" width="64" height="64" rx="32" stroke="#A0AEBB" stroke-width="4"/>
<g clip-path="url(#clip0_130_34006)">
<path d="M31.9043 46.5585C33.2939 46.3528 34.7061 46.3528 36.0957 46.5585L34 41.4993L31.9043 46.5585Z" fill="#A0AEBB"/>
<path d="M42.1964 37.1215C41.951 37.9997 41.8404 38.9101 41.8685 39.8215C41.8404 40.733 41.951 41.6434 42.1964 42.5215L45.9764 44.0901C45.6931 42.6853 45.5573 41.2546 45.5714 39.8215C45.5573 38.3885 45.6931 36.9578 45.9764 35.553L42.1964 37.1215Z" fill="#A0AEBB"/>
<path d="M33.9999 47.6901C33.0885 47.662 32.1781 47.7725 31.2999 48.0179L29.7378 51.7979C31.1405 51.5144 32.569 51.3787 33.9999 51.3929C35.4309 51.3787 36.8594 51.5144 38.2621 51.7979L36.6999 48.0179C35.8217 47.7725 34.9114 47.662 33.9999 47.6901Z" fill="#A0AEBB"/>
<path d="M41.7146 43.7107C40.9215 44.1576 40.2018 44.7235 39.5803 45.3886C38.9025 46.0147 38.3219 46.7384 37.8574 47.5357L39.426 51.3221C41.0386 48.9466 43.0869 46.8983 45.4624 45.2857L41.7146 43.7107Z" fill="#A0AEBB"/>
<path d="M32.3225 39.8215L27.2632 37.7258C27.3652 38.4198 27.4168 39.1202 27.4175 39.8215C27.4168 40.5229 27.3652 41.2233 27.2632 41.9173L32.3225 39.8215Z" fill="#A0AEBB"/>
<path d="M25.8037 42.5215C26.0491 41.6434 26.1597 40.733 26.1315 39.8215C26.1597 38.9101 26.0491 37.9997 25.8037 37.1215L22.0237 35.553C22.307 36.9578 22.4427 38.3885 22.4287 39.8215C22.4427 41.2546 22.307 42.6853 22.0237 44.0901L25.8037 42.5215Z" fill="#A0AEBB"/>
<path d="M37.2852 46.07C37.7018 45.5057 38.1595 44.9728 38.6545 44.4757C39.1501 43.9792 39.6831 43.5215 40.2487 43.1065L35.1895 41.0107L37.2852 46.07Z" fill="#A0AEBB"/>
<path d="M28.4331 45.3886C27.8077 44.7224 27.0835 44.1565 26.2859 43.7107L22.4995 45.2728C23.6943 46.0644 24.8019 46.9802 25.8038 48.005C26.8286 49.0069 27.7444 50.1145 28.5359 51.3093L30.1431 47.5357C29.6825 46.7393 29.1063 46.0156 28.4331 45.3886Z" fill="#A0AEBB"/>
<path d="M34.6429 25.0357C35.5718 25.1019 36.4838 25.319 37.3429 25.6786H40.4286C41.4937 25.6786 42.3571 26.5421 42.3571 27.6072V28.25H43C44.0651 28.25 44.9286 29.1135 44.9286 30.1786V30.8215C44.9286 31.1765 44.6408 31.4643 44.2857 31.4643C43.9307 31.4643 43.6429 31.1765 43.6429 30.8215V30.1786C43.6429 29.8236 43.355 29.5357 43 29.5357H40.4286C40.4276 29.7519 40.4039 29.9674 40.3579 30.1786H41.0714C42.1365 30.1786 43 31.0421 43 32.1072V32.75C43 33.1051 42.7122 33.3929 42.3571 33.3929C42.0021 33.3929 41.7143 33.1051 41.7143 32.75V32.1072C41.7143 31.7521 41.4265 31.4643 41.0714 31.4643H39.8243C39.666 31.6941 39.4874 31.9093 39.2907 32.1072C40.2977 32.1846 41.0744 33.0258 41.0714 34.0357V34.6786C41.0714 35.0336 40.7836 35.3215 40.4286 35.3215C40.0735 35.3215 39.7857 35.0336 39.7857 34.6786V34.0357C39.7857 33.6807 39.4979 33.3929 39.1429 33.3929H37.3429C35.197 34.2514 32.803 34.2514 30.6571 33.3929H28.8571C28.5021 33.3929 28.2143 33.6807 28.2143 34.0357V34.6786C28.2143 35.0336 27.9265 35.3215 27.5714 35.3215C27.2164 35.3215 26.9286 35.0336 26.9286 34.6786V34.0357C26.9256 33.0258 27.7023 32.1846 28.7093 32.1072C28.5126 31.9093 28.334 31.6941 28.1757 31.4643H26.9286C26.5735 31.4643 26.2857 31.7521 26.2857 32.1072V32.75C26.2857 33.1051 25.9979 33.3929 25.6429 33.3929C25.2878 33.3929 25 33.1051 25 32.75V32.1072C25 31.0421 25.8635 30.1786 26.9286 30.1786H27.6421C27.5961 29.9674 27.5724 29.7519 27.5714 29.5357H25C24.645 29.5357 24.3571 29.8236 24.3571 30.1786V30.8215C24.3571 31.1765 24.0693 31.4643 23.7143 31.4643C23.3592 31.4643 23.0714 31.1765 23.0714 30.8215V30.1786C23.0714 29.1135 23.9349 28.25 25 28.25H25.6429V27.6072C25.6429 26.5421 26.5063 25.6786 27.5714 25.6786H30.6571C31.5162 25.319 32.4282 25.1019 33.3571 25.0357V23.1072H16V46.8929C16 47.958 16.8635 48.8215 17.9286 48.8215H24.8136C23.7079 47.6328 22.4024 46.6472 20.9564 45.9093L20.5579 46.0765C20.2294 46.2114 19.8538 46.0545 19.7189 45.7261C19.584 45.3977 19.7409 45.0221 20.0693 44.8872L20.5 44.72C21 43.1375 21.2176 41.4794 21.1429 39.8215C21.2176 38.1635 21 36.5054 20.5 34.9229L20.1079 34.7557C19.7794 34.6208 19.6226 34.2452 19.7575 33.9168C19.8924 33.5884 20.268 33.4315 20.5964 33.5665L34 39.1272L47.4164 33.5665C47.7448 33.4315 48.1204 33.5884 48.2554 33.9168C48.3903 34.2452 48.2334 34.6208 47.905 34.7557L47.5129 34.9229C47.0085 36.5046 46.7865 38.1628 46.8571 39.8215C46.7824 41.4794 47 43.1375 47.5 44.72L47.8921 44.8872C48.2206 45.0221 48.3774 45.3977 48.2425 45.7261C48.1076 46.0545 47.732 46.2114 47.4036 46.0765L47.005 45.9093C45.559 46.6472 44.2535 47.6328 43.1479 48.8215H50.0714C51.1365 48.8215 52 47.958 52 46.8929V23.1072H34.6429V25.0357ZM18.5714 39.1786C18.5714 39.5336 18.2836 39.8215 17.9286 39.8215C17.5735 39.8215 17.2857 39.5336 17.2857 39.1786V29.5357C17.2857 29.1807 17.5735 28.8929 17.9286 28.8929C18.2836 28.8929 18.5714 29.1807 18.5714 29.5357V39.1786ZM18.5714 26.9643C18.5714 27.3194 18.2836 27.6072 17.9286 27.6072C17.5735 27.6072 17.2857 27.3194 17.2857 26.9643V25.0357C17.2857 24.6807 17.5735 24.3929 17.9286 24.3929C18.2836 24.3929 18.5714 24.6807 18.5714 25.0357V26.9643Z" fill="#A0AEBB"/>
<path d="M35.678 39.8215L40.7373 41.9173C40.5315 40.5277 40.5315 39.1154 40.7373 37.7258L35.678 39.8215Z" fill="#A0AEBB"/>
<path d="M29.3457 44.4757C29.8407 44.9728 30.2984 45.5057 30.715 46.07L32.8107 41.0107L27.7515 43.1065C28.3171 43.5215 28.8501 43.9792 29.3457 44.4757Z" fill="#A0AEBB"/>
<path d="M26.9285 27.6072V28.2501H27.8349C28.0348 27.7691 28.3275 27.3322 28.6963 26.9644H27.5713C27.2163 26.9644 26.9285 27.2522 26.9285 27.6072Z" fill="#A0AEBB"/>
<path d="M28.8574 29.5358C28.8574 31.278 31.2103 32.7501 34.0003 32.7501C36.7903 32.7501 39.1432 31.278 39.1432 29.5358C39.1432 27.7937 36.7903 26.3215 34.0003 26.3215C31.2103 26.3215 28.8574 27.7937 28.8574 29.5358ZM35.286 30.1787C35.641 30.1787 35.9289 30.4665 35.9289 30.8215C35.9289 31.1766 35.641 31.4644 35.286 31.4644C34.931 31.4644 34.6431 31.1766 34.6431 30.8215C34.6431 30.4665 34.931 30.1787 35.286 30.1787ZM32.7146 30.1787C33.0696 30.1787 33.3574 30.4665 33.3574 30.8215C33.3574 31.1766 33.0696 31.4644 32.7146 31.4644C32.3595 31.4644 32.0717 31.1766 32.0717 30.8215C32.0717 30.4665 32.3595 30.1787 32.7146 30.1787Z" fill="#A0AEBB"/>
<path d="M51.3571 17.9644H16.6429C16.2878 17.9644 16 18.2522 16 18.6072V21.8215H52V18.6072C52 18.2522 51.7122 17.9644 51.3571 17.9644ZM17.9286 20.5358C17.5735 20.5358 17.2857 20.248 17.2857 19.8929C17.2857 19.5379 17.5735 19.2501 17.9286 19.2501C18.2836 19.2501 18.5714 19.5379 18.5714 19.8929C18.5714 20.248 18.2836 20.5358 17.9286 20.5358ZM20.5 20.5358C20.145 20.5358 19.8571 20.248 19.8571 19.8929C19.8571 19.5379 20.145 19.2501 20.5 19.2501C20.855 19.2501 21.1429 19.5379 21.1429 19.8929C21.1429 20.248 20.855 20.5358 20.5 20.5358ZM23.0714 20.5358C22.7164 20.5358 22.4286 20.248 22.4286 19.8929C22.4286 19.5379 22.7164 19.2501 23.0714 19.2501C23.4265 19.2501 23.7143 19.5379 23.7143 19.8929C23.7143 20.248 23.4265 20.5358 23.0714 20.5358ZM50.0714 20.5358H46.2143C45.8592 20.5358 45.5714 20.248 45.5714 19.8929C45.5714 19.5379 45.8592 19.2501 46.2143 19.2501H50.0714C50.4265 19.2501 50.7143 19.5379 50.7143 19.8929C50.7143 20.248 50.4265 20.5358 50.0714 20.5358Z" fill="#A0AEBB"/>
<path d="M41.0713 28.2501V27.6072C41.0713 27.2522 40.7835 26.9644 40.4285 26.9644H39.3035C39.6722 27.3322 39.965 27.7691 40.1649 28.2501H41.0713Z" fill="#A0AEBB"/>
</g>
<defs>
<clipPath id="clip0_130_34006">
<rect width="36" height="36" fill="white" transform="translate(16 17)"/>
</clipPath>
</defs>
</svg>
