<svg width="68" height="68" viewBox="0 0 68 68" fill="none" xmlns="http://www.w3.org/2000/svg">
<rect x="2" y="2" width="64" height="64" rx="32" stroke="#A0AEBB" stroke-width="4"/>
<g clip-path="url(#clip0_130_34007)">
<path d="M42.9648 47.958H40.6406C39.7252 47.958 38.9805 47.2133 38.9805 46.2979V45.9658H29.0195V46.2979C29.0195 47.2133 28.2748 47.958 27.3594 47.958H25.0352C24.485 47.958 24.0391 48.404 24.0391 48.9541C24.0391 49.5042 24.485 49.9502 25.0352 49.9502H42.9648C43.515 49.9502 43.9609 49.5042 43.9609 48.9541C43.9609 48.404 43.515 47.958 42.9648 47.958Z" fill="#A0AEBB"/>
<path d="M31.0152 26.0107H36.9918C36.9367 21.1663 37.124 20.8568 36.809 20.001H31.198C30.884 20.8541 31.071 21.0996 31.0152 26.0107Z" fill="#A0AEBB"/>
<path d="M50.0039 20.001H38.8762C39.0609 20.876 38.9512 21.0665 38.9838 26.0108H40.9727C41.5228 26.0108 41.9688 26.4568 41.9688 27.0069V28.0592H43.3353L44.0617 26.5701C44.303 26.0756 44.8995 25.8704 45.3938 26.1117C45.8882 26.3529 46.0934 26.9493 45.8523 27.4437L44.8528 29.492C44.6858 29.8343 44.3384 30.0514 43.9576 30.0514H41.9688V31.9874H45.9531C46.5032 31.9874 46.9492 32.4334 46.9492 32.9835C46.9492 33.5336 46.5032 33.9796 45.9531 33.9796H41.7166C41.5341 34.6862 41.2566 35.355 40.899 35.9717H43.9576C44.3345 35.9717 44.679 36.1844 44.8479 36.5212L45.8473 38.5134C46.094 39.0051 45.8954 39.6037 45.4036 39.8504C44.9146 40.0958 44.3146 39.901 44.0667 39.4067L43.3429 37.9639H39.2646C36.2542 40.6189 31.7498 40.6224 28.7353 37.9639H24.657L23.9332 39.4067C23.6862 39.8991 23.0873 40.0967 22.5963 39.8504C22.1045 39.6037 21.9059 39.0051 22.1525 38.5134L23.1519 36.5212C23.3209 36.1844 23.6654 35.9717 24.0422 35.9717H27.1009C26.7433 35.355 26.4658 34.6862 26.2833 33.9796H22.0469C21.4968 33.9796 21.0508 33.5336 21.0508 32.9835C21.0508 32.4334 21.4968 31.9874 22.0469 31.9874H26.0312V29.9952H24.0391C23.6617 29.9952 23.3168 29.782 23.1482 29.4445L22.1521 27.4524C21.906 26.9603 22.1054 26.362 22.5975 26.1159C23.0896 25.8698 23.6879 26.0693 23.9339 26.5614L24.6546 28.0029H26.0312V27.0068C26.0312 26.4567 26.4772 26.0107 27.0273 26.0107H29.0229C29.0555 21.0606 28.9458 20.8758 29.1304 20.001H17.9961C17.446 20.001 17 20.447 17 20.9971V42.9775C17 43.5276 17.446 43.9736 17.9961 43.9736H50.0039C50.554 43.9736 51 43.5276 51 42.9775V20.9971C51 20.447 50.554 20.001 50.0039 20.001Z" fill="#A0AEBB"/>
<path d="M28.0234 31.9873C28.0234 35.2828 30.7045 37.9639 34 37.9639C37.2813 37.9639 39.9766 35.2963 39.9766 31.9873V28.0029H28.0234V31.9873ZM33.0039 31.9873C33.0039 31.4372 33.4499 30.9912 34 30.9912C34.5501 30.9912 34.9961 31.4372 34.9961 31.9873V33.9795C34.9961 34.5296 34.5501 34.9756 34 34.9756C33.4499 34.9756 33.0039 34.5296 33.0039 33.9795V31.9873Z" fill="#A0AEBB"/>
<path d="M36.8089 20.001H38.8763C38.4007 17.747 36.3968 16.0498 34.0034 16.0498C31.61 16.0498 29.606 17.747 29.1305 20.001H31.1979C32.1571 17.3947 35.8498 17.3951 36.8089 20.001Z" fill="#A0AEBB"/>
</g>
<defs>
<clipPath id="clip0_130_34007">
<rect width="34" height="34" fill="white" transform="translate(17 16)"/>
</clipPath>
</defs>
</svg>
