<svg width="68" height="68" viewBox="0 0 68 68" fill="none" xmlns="http://www.w3.org/2000/svg">
<rect x="2" y="2" width="64" height="64" rx="32" stroke="#A0AEBB" stroke-width="4"/>
<g clip-path="url(#clip0_130_34009)">
<path d="M33.3547 17.8711H34.645V19.1614H33.3547V17.8711Z" fill="#A0AEBB"/>
<path d="M35.9355 17.8711H37.2259V19.1614H35.9355V17.8711Z" fill="#A0AEBB"/>
<path d="M30.7743 17.8711H32.0646V19.1614H30.7743V17.8711Z" fill="#A0AEBB"/>
<path d="M14 33.3547H15.2903V34.645H14V33.3547Z" fill="#A0AEBB"/>
<path d="M17.8711 30.7742H19.1614V32.0645H17.8711V30.7742Z" fill="#A0AEBB"/>
<path d="M15.2903 23.0323H17.8709V24.3226H16.5806V25.6129H23.0323V24.3226H21.742V23.0323H24.3226C25.0342 23.0323 25.6129 22.4536 25.6129 21.742V15.2903C25.6129 14.5787 25.0342 14 24.3226 14H15.2903C14.5787 14 14 14.5787 14 15.2903V21.742C14 22.4535 14.5787 23.0323 15.2903 23.0323ZM15.2903 20.4516H24.3232V21.742H15.2903V20.4516Z" fill="#A0AEBB"/>
<path d="M52.7094 33.3547H53.9997V34.645H52.7094V33.3547Z" fill="#A0AEBB"/>
<path d="M48.8391 30.7742H50.1294V32.0645H48.8391V30.7742Z" fill="#A0AEBB"/>
<path d="M52.7097 42.3868H48.8387V35.9352H44.9678V34.6449H51.4195V33.3546H44.9678V32.0642H47.5484V30.7739H44.9678V28.4397L34 22.9558L23.0323 28.4397V30.7739H20.4516V32.0642H23.0323V33.3546H16.5806V34.6449H23.0323V35.9352H19.1613V42.3868H15.2903C14.5787 42.3868 14 42.9655 14 43.6771V50.1288C14 50.8404 14.5787 51.4191 15.2903 51.4191H17.8709V52.7094H16.5806V53.9997H23.0323V52.7094H21.742V51.4191H24.3226C25.0342 51.4191 25.6129 50.8404 25.6129 50.1288V43.6771C25.6129 42.9655 25.0342 42.3868 24.3226 42.3868H20.4516V37.2255H23.0323V39.5597L28.4948 42.2914C28.4245 42.3507 28.3406 42.3868 28.2509 42.3868H26.9032V46.2578H28.2509C28.4116 46.2578 28.56 46.3661 28.6367 46.55C28.7084 46.7235 28.6812 46.9029 28.5664 47.0184L27.6109 47.9739L30.349 50.7119L31.3038 49.7571C31.4199 49.641 31.5999 49.6145 31.7877 49.6919C31.9587 49.7628 32.0652 49.908 32.0652 50.0713V51.419H35.9361V50.0719C35.9361 49.9087 36.0426 49.7628 36.2284 49.6861C36.4019 49.6132 36.5806 49.641 36.6974 49.7571L37.6523 50.7119L40.3903 47.9739L39.4348 47.019C39.3194 46.9029 39.2923 46.7235 39.3703 46.5351C39.44 46.3667 39.589 46.2577 39.7497 46.2577H41.0968V42.3867H39.7491C39.6607 42.3867 39.5768 42.3513 39.5059 42.2907L44.9678 39.5597V37.2255H47.5484V42.3868H43.6775C42.9659 42.3868 42.3872 42.9655 42.3872 43.6771V50.1288C42.3872 50.8404 42.9659 51.4191 43.6775 51.4191H46.2581V52.7094H44.9678V53.9997H51.4195V52.7094H50.1291V51.4191H52.7098C53.4214 51.4191 54.0001 50.8404 54.0001 50.1288V43.6771C54 42.9655 53.4212 42.3868 52.7097 42.3868ZM24.3232 48.8384V50.1287H15.2903V48.8384H24.3232ZM24.3226 38.7623V29.2371L33.3548 24.721V28.1933H31.8497C29.122 28.1933 26.9032 30.412 26.9032 33.1398C26.9032 34.6882 27.6426 36.1675 28.8819 37.0966L29.4838 37.5482V39.1611C29.4838 40.2282 30.3522 41.0966 31.4193 41.0966C31.9167 41.0966 32.3664 40.9024 32.7096 40.5934C32.8961 40.7611 33.1154 40.8908 33.3548 40.9785V43.2792L24.3226 38.7623ZM32.7097 33.9997C32.7097 34.7126 32.1323 35.29 31.4194 35.29C30.7065 35.29 30.1291 34.7126 30.1291 33.9997C30.1291 33.2868 30.7065 32.7094 31.4194 32.7094C32.1323 32.7094 32.7097 33.2868 32.7097 33.9997ZM34 46.2578C32.9329 46.2578 32.0645 45.3894 32.0645 44.3223C32.0645 44.2429 32.082 44.1668 32.0916 44.0894L34 45.0436L35.9084 44.0894C35.918 44.1668 35.9355 44.2429 35.9355 44.3223C35.9355 45.3894 35.0671 46.2578 34 46.2578ZM43.6774 38.7623L34.6452 43.2784V40.9778C34.8845 40.8907 35.1038 40.761 35.2903 40.5926C35.6335 40.9023 36.0832 41.0958 36.5806 41.0958C37.6477 41.0958 38.5161 40.2275 38.5161 39.1603V37.5475L39.118 37.0958C40.3574 36.1675 41.0967 34.6881 41.0967 33.1397C41.0967 30.412 38.878 28.1932 36.1502 28.1932H34.6451V24.721L43.6773 29.2371V38.7623H43.6774ZM35.2903 33.9997C35.2903 33.2868 35.8677 32.7094 36.5806 32.7094C37.2935 32.7094 37.8709 33.2868 37.8709 33.9997C37.8709 34.7126 37.2935 35.29 36.5806 35.29C35.8677 35.29 35.2903 34.7126 35.2903 33.9997ZM52.7097 50.1288H43.6774V48.8385H52.7097V50.1288Z" fill="#A0AEBB"/>
<path d="M52.7093 14H43.677C42.9654 14 42.3867 14.5787 42.3867 15.2903V21.742C42.3867 22.4536 42.9654 23.0323 43.677 23.0323H46.2576V24.3226H44.9673V25.6129H51.419V24.3226H50.1287V23.0323H52.7093C53.4209 23.0323 53.9996 22.4536 53.9996 21.742V15.2903C53.9996 14.5787 53.4208 14 52.7093 14V14ZM52.7093 21.742H43.677V20.4516H52.7093V21.742Z" fill="#A0AEBB"/>
<path d="M32.0645 52.7097H33.3548V54H32.0645V52.7097Z" fill="#A0AEBB"/>
<path d="M29.484 52.7097H30.7743V54H29.484V52.7097Z" fill="#A0AEBB"/>
<path d="M34.6453 52.7097H35.9356V54H34.6453V52.7097Z" fill="#A0AEBB"/>
<path d="M37.2257 52.7097H38.516V54H37.2257V52.7097Z" fill="#A0AEBB"/>
</g>
<defs>
<clipPath id="clip0_130_34009">
<rect width="40" height="40" fill="white" transform="translate(14 14)"/>
</clipPath>
</defs>
</svg>
