<svg width="68" height="68" viewBox="0 0 68 68" fill="none" xmlns="http://www.w3.org/2000/svg">
<rect x="2" y="2" width="64" height="64" rx="32" stroke="#A0AEBB" stroke-width="4"/>
<g clip-path="url(#clip0_130_34010)">
<path d="M43.0133 25.3518C42.555 25.3968 42.2217 25.8051 42.2667 26.2634C42.3117 26.7218 42.725 27.0551 43.1783 27.0101C43.185 27.0084 43.195 27.0084 43.2033 27.0067C43.4383 27.0968 44 27.9718 44 29.5001C44 31.1135 43.3883 31.9735 43.115 31.9635C42.8883 31.8235 42.6083 31.8001 42.3616 31.9001C42.1166 32.0001 41.9333 32.2118 41.8683 32.4701C40.7016 37.1735 37.54 40.3335 34 40.3335C30.46 40.3335 27.2983 37.1735 26.1316 32.4701C26.0666 32.2118 25.8583 32.0201 25.6116 31.9185C25.3666 31.8185 25.06 31.8601 24.8333 32.0001C24.625 32.0001 24 31.1135 24 29.5001C24 27.9718 24.5616 27.0968 24.7966 27.0068C24.805 27.0084 24.815 27.0101 24.8216 27.0101C25.285 27.0468 25.745 26.7335 25.7916 26.2751C25.8383 25.8168 25.5616 25.4185 25.1033 25.3735C25.0283 25.3519 24.9116 25.3335 24.8333 25.3335C23.4083 25.3335 22.3333 27.1251 22.3333 29.5001C22.3333 31.8185 23.3566 33.5801 24.7299 33.6635C26.245 38.6835 29.8933 42.0001 34 42.0001C38.1066 42.0001 41.755 38.6835 43.27 33.6635C44.6433 33.5801 45.6666 31.8185 45.6666 29.5001C45.6666 27.1251 44.665 25.3535 43.0133 25.3518Z" fill="#A0AEBB"/>
<path d="M30.6668 26.1665C26.6735 26.1665 27.3335 27.2865 27.3335 28.6665C27.3335 30.0465 27.9918 31.1665 29.8335 31.1665C31.6751 31.1665 34.0001 30.0465 34.0001 28.6665C34.0001 27.2865 34.5218 26.1665 30.6668 26.1665Z" fill="#A0AEBB"/>
<path d="M34.3098 26.2401C33.6998 25.6051 32.6115 25.3335 30.6665 25.3335C28.6448 25.3335 27.5731 25.5969 26.9681 26.2401C26.3948 26.8518 26.4415 27.6001 26.4798 28.2018C26.4898 28.3518 26.4998 28.5068 26.4998 28.6668C26.4998 30.7535 27.7465 32.0001 29.8332 32.0001C31.9216 32.0001 34.8332 30.7318 34.8332 28.6668C34.8332 28.5284 34.8382 28.3918 34.8448 28.2584C34.8698 27.6351 34.9032 26.8601 34.3098 26.2401ZM33.1798 28.1885C33.1732 28.3435 33.1665 28.5035 33.1665 28.6669C33.1665 29.3552 31.4431 30.3335 29.8331 30.3335C28.6815 30.3335 28.1665 29.8185 28.1665 28.6669C28.1665 28.4719 28.1548 28.2802 28.1431 28.0969C28.1248 27.7869 28.1031 27.4669 28.1831 27.3819C28.2665 27.2919 28.6948 27.0002 30.6665 27.0002C32.5281 27.0002 32.9931 27.2769 33.1065 27.3936C33.2098 27.5001 33.1948 27.8351 33.1798 28.1885Z" fill="#A0AEBB"/>
<path d="M37.3564 26.1665C33.503 26.1665 34.023 27.2865 34.023 28.6665C34.023 30.0465 36.3246 31.1665 38.1664 31.1665C40.008 31.1665 40.6897 30.0465 40.6897 28.6665C40.6897 27.2865 41.3497 26.1665 37.3564 26.1665Z" fill="#A0AEBB"/>
<path d="M41.0548 26.2401C40.4498 25.5968 39.3781 25.3335 37.3564 25.3335C35.4131 25.3335 34.3231 25.6051 33.7131 26.2401C33.1181 26.8601 33.1514 27.6351 33.1781 28.2585C33.1847 28.3919 33.1897 28.5285 33.1897 28.6669C33.1897 30.7319 36.0881 32.0002 38.1663 32.0002C40.2363 32.0002 41.523 30.7219 41.5213 28.6652C41.5213 28.5069 41.533 28.3502 41.5413 28.2002C41.5798 27.5985 41.6281 26.8501 41.0548 26.2401ZM39.8798 28.0968C39.8681 28.2801 39.8564 28.4718 39.8564 28.6668C39.8564 29.8184 39.3348 30.3334 38.1664 30.3334C36.5681 30.3334 34.8564 29.3551 34.8564 28.6668C34.8564 28.5034 34.8498 28.3434 34.8431 28.1884C34.8281 27.8351 34.8131 27.5001 34.9164 27.3934C35.0298 27.2768 35.4948 27.0001 37.3564 27.0001C39.3281 27.0001 39.7564 27.2917 39.8414 27.3817C39.9198 27.4668 39.8998 27.7868 39.8798 28.0968Z" fill="#A0AEBB"/>
<path d="M43.3516 19.52C42.0533 15.58 39.6916 12 37.3333 12C35.8083 12 34.665 12.73 34 13.3084C33.335 12.73 32.1916 12 30.6666 12C28.3083 12 25.9466 15.58 24.6483 19.52C18.2233 20.6284 17.3333 21.7666 17.3333 22.8334C17.3333 26.1234 27.81 27 34 27C40.19 27 50.6666 26.1234 50.6666 22.8334C50.6666 21.7666 49.7766 20.6284 43.3516 19.52ZM42.14 20.0334C41.9716 20.235 40.3183 22 34 22C27.6816 22 26.0283 20.235 25.86 20.0334C25.565 19.68 25.6133 19.1534 25.9666 18.86C26.3133 18.5716 26.825 18.6116 27.1216 18.945C27.1883 19.0084 28.6383 20.3334 34 20.3334C39.4666 20.3334 40.8666 18.9567 40.88 18.9434C41.1933 18.6234 41.7133 18.5967 42.0466 18.8934C42.38 19.1916 42.4266 19.69 42.14 20.0334Z" fill="#A0AEBB"/>
<path d="M28.455 50.4735L25.1134 48.2468C24.585 47.8952 24.2117 47.3602 24.0667 46.7402C24.0001 46.4602 23.7934 46.2336 23.5201 46.1418L23.2084 46.0368C22.8418 45.9152 22.5051 45.7068 22.2318 45.4335L19.6284 42.8301C19.3468 42.5485 18.9051 42.5035 18.5768 42.7251C15.6684 44.6651 14 47.7418 14 51.1668C14 51.6268 14.3734 52.0001 14.8334 52.0001H27.9917C28.3584 52.0001 28.6834 51.7601 28.7901 51.4085C28.8968 51.0568 28.76 50.6768 28.455 50.4735Z" fill="#A0AEBB"/>
<path d="M48.9766 39.3084C48.91 39.0268 48.7032 38.8 48.4282 38.71L43.4282 37.0434C43.0782 36.9268 42.6882 37.055 42.4782 37.3618L34 49.6967L25.52 37.3617C25.31 37.055 24.9233 36.9267 24.57 37.0433L19.57 38.71C19.295 38.8016 19.0883 39.0266 19.0216 39.3083C18.955 39.5883 19.04 39.885 19.2432 40.0883L23.4099 44.255C23.5015 44.3466 23.6132 44.415 23.7349 44.4566L25.6665 45.1V46.1666C25.6665 46.445 25.8049 46.705 26.0382 46.86L33.5282 51.8533C33.5765 51.8867 33.6282 51.915 33.6798 51.9367C33.7832 51.9783 33.8914 52.0001 33.9998 52.0001C34.1098 52.0001 34.2198 51.9784 34.3232 51.9351C34.3748 51.9134 34.4248 51.8867 34.4698 51.8534L41.9614 46.8601C42.1948 46.7051 42.3331 46.4451 42.3331 46.1667V45.1001L44.2631 44.4567C44.3864 44.4167 44.4981 44.3467 44.5881 44.2551L48.7547 40.0884C48.96 39.8834 49.0433 39.5884 48.9766 39.3084Z" fill="#A0AEBB"/>
<path d="M49.4218 42.7268C49.0934 42.5052 48.6518 42.5502 48.3701 42.8318L45.7651 45.4368C45.4918 45.7102 45.1551 45.9185 44.7885 46.0402L44.4785 46.1436C44.2051 46.2352 43.9985 46.4602 43.9319 46.7419C43.7869 47.3619 43.4135 47.8953 42.8852 48.2486L39.5452 50.4752C39.2402 50.6786 39.1036 51.0586 39.2102 51.4102C39.3168 51.7618 39.6418 52.0002 40.0085 52.0002H53.1669C53.6269 52.0002 54.0002 51.6268 54.0002 51.1668C54.0001 47.7418 52.3318 44.6652 49.4218 42.7268Z" fill="#A0AEBB"/>
</g>
<defs>
<clipPath id="clip0_130_34010">
<rect width="40" height="40" fill="white" transform="translate(14 12)"/>
</clipPath>
</defs>
</svg>
