<svg width="68" height="68" viewBox="0 0 68 68" fill="none" xmlns="http://www.w3.org/2000/svg">
<rect x="2" y="2" width="64" height="64" rx="32" stroke="#A0AEBB" stroke-width="4"/>
<path d="M23.4375 16C18.7848 16 15 19.7848 15 24.4375C15 29.0902 18.7848 32.875 23.4375 32.875C28.0674 32.875 31.875 29.1363 31.875 24.4375C31.875 19.8407 28.1287 16 23.4375 16ZM24.375 28.9523V30.0625C24.375 30.5807 23.9557 31 23.4375 31C22.9193 31 22.5 30.5807 22.5 30.0625V28.9431C21.9862 28.7591 21.5214 28.4451 21.1881 28.0007C20.8777 27.586 20.961 26.9982 21.3748 26.6879C21.7923 26.3802 22.3791 26.4599 22.6877 26.8746C22.8662 27.1136 23.1399 27.25 23.4375 27.25C23.9548 27.25 24.375 26.8298 24.375 26.3125C24.375 25.7952 23.9548 25.375 23.4375 25.375C21.8866 25.375 20.625 24.1134 20.625 22.5625C20.625 21.3419 21.4111 20.311 22.5 19.9227V18.8125C22.5 18.2943 22.9193 17.875 23.4375 17.875C23.9557 17.875 24.375 18.2943 24.375 18.8125V19.9319C24.8888 20.1159 25.3536 20.4299 25.6869 20.8742C25.9973 21.289 25.914 21.8768 25.5002 22.1871C25.0854 22.4984 24.4995 22.4151 24.1873 22.0004C23.6975 21.3457 22.5 21.7477 22.5 22.5625C22.5 23.0798 22.9202 23.5 23.4375 23.5C24.9884 23.5 26.25 24.7616 26.25 26.3125C26.25 27.5331 25.4639 28.564 24.375 28.9523Z" fill="#A0AEBB"/>
<path d="M46.0625 19.75H32.5924C33.1943 20.9267 33.5653 22.1997 33.6913 23.5H42.1875C42.7057 23.5 43.125 23.9193 43.125 24.4375V31.9375C43.125 32.4557 42.7057 32.875 42.1875 32.875H29.3416C27.7858 33.9617 26.1415 34.5371 24.375 34.692V47.0625C24.375 47.5807 24.7943 48 25.3125 48H46.0625C46.5807 48 47 47.5807 47 47.0625V20.6875C47 20.1693 46.5807 19.75 46.0625 19.75ZM34.6875 34.75H36.5625C37.0807 34.75 37.5 35.1693 37.5 35.6875C37.5 36.2057 37.0807 36.625 36.5625 36.625H34.6875C34.1693 36.625 33.75 36.2057 33.75 35.6875C33.75 35.1693 34.1693 34.75 34.6875 34.75ZM34.6875 38.5H36.5625C37.0807 38.5 37.5 38.9193 37.5 39.4375C37.5 39.9557 37.0807 40.375 36.5625 40.375H34.6875C34.1693 40.375 33.75 39.9557 33.75 39.4375C33.75 38.9193 34.1693 38.5 34.6875 38.5ZM30.9375 44.125H29.0625C28.5443 44.125 28.125 43.7057 28.125 43.1875C28.125 42.6693 28.5443 42.25 29.0625 42.25H30.9375C31.4557 42.25 31.875 42.6693 31.875 43.1875C31.875 43.7057 31.4557 44.125 30.9375 44.125ZM30.9375 40.375H29.0625C28.5443 40.375 28.125 39.9557 28.125 39.4375C28.125 38.9193 28.5443 38.5 29.0625 38.5H30.9375C31.4557 38.5 31.875 38.9193 31.875 39.4375C31.875 39.9557 31.4557 40.375 30.9375 40.375ZM30.9375 36.625H29.0625C28.5443 36.625 28.125 36.2057 28.125 35.6875C28.125 35.1693 28.5443 34.75 29.0625 34.75H30.9375C31.4557 34.75 31.875 35.1693 31.875 35.6875C31.875 36.2057 31.4557 36.625 30.9375 36.625ZM42.1875 44.125H34.6875C34.1693 44.125 33.75 43.7057 33.75 43.1875C33.75 42.6693 34.1693 42.25 34.6875 42.25H42.1875C42.7057 42.25 43.125 42.6693 43.125 43.1875C43.125 43.7057 42.7057 44.125 42.1875 44.125ZM42.1875 40.375H40.3125C39.7943 40.375 39.375 39.9557 39.375 39.4375C39.375 38.9193 39.7943 38.5 40.3125 38.5H42.1875C42.7057 38.5 43.125 38.9193 43.125 39.4375C43.125 39.9557 42.7057 40.375 42.1875 40.375ZM42.1875 36.625H40.3125C39.7943 36.625 39.375 36.2057 39.375 35.6875C39.375 35.1693 39.7943 34.75 40.3125 34.75H42.1875C42.7057 34.75 43.125 35.1693 43.125 35.6875C43.125 36.2057 42.7057 36.625 42.1875 36.625Z" fill="#A0AEBB"/>
<path d="M41.2501 31V25.375H33.6714C33.4787 27.4861 32.6677 29.4319 31.3707 31H41.2501Z" fill="#A0AEBB"/>
</svg>
