<svg width="28" height="38" viewBox="0 0 28 38" fill="none" xmlns="http://www.w3.org/2000/svg">
<path d="M25.4694 20.5842C24.9217 21.2105 24.191 22.0543 23.3173 23.0822C21.6198 20.7342 20.0848 19.0499 18.9203 17.9145C18.5307 17.5345 18.1826 17.2162 17.8839 16.955C18.0957 16.8446 18.3334 16.727 18.5948 16.607C19.6929 16.1031 21.1924 15.5659 22.9368 15.3303L26.0664 19.905C25.9026 20.0903 25.7026 20.3175 25.4694 20.5842ZM10.1013 16.8189C9.80529 17.0877 9.45984 17.4132 9.07274 17.7981C7.92144 18.9427 6.40183 20.6115 4.71882 22.8694C3.88639 21.8453 3.15304 21.0032 2.58704 20.3756C2.34612 20.1085 2.13539 19.88 1.96012 19.6928L5.05314 15.3277C6.81625 15.5562 8.32956 16.0566 9.4345 16.5213C9.6779 16.6237 9.90076 16.724 10.1013 16.8189ZM13.9977 35.3356C11.9753 31.9679 9.66942 28.8974 7.59002 26.2458C8.26064 25.2593 9.14863 24.0442 10.1926 22.867C11.3373 21.5761 12.6339 20.3718 14 19.5552C15.366 20.3718 16.6626 21.5761 17.8073 22.867C18.8452 24.0374 19.729 25.2452 20.3982 26.2285C18.3037 28.7766 16.0079 31.9551 13.9977 35.3356ZM20.2419 11.3322C18.413 11.6714 16.2592 12.3904 14 14.0057C11.7408 12.3904 9.58692 11.6714 7.75799 11.3322L14 2.41107L20.2419 11.3322Z" stroke="white" stroke-width="2"/>
</svg>
