<svg width="68" height="68" viewBox="0 0 68 68" fill="none" xmlns="http://www.w3.org/2000/svg">
<rect x="2" y="2" width="64" height="64" rx="32" stroke="#A0AEBB" stroke-width="4"/>
<path d="M37.8671 15V22.7344H35.289V15H32.7109V25.3125H30.1328V15H21.6016L22.5343 16.8656C24.1318 20.0593 24.9765 23.6408 24.9765 27.2209V30.4688H43.0234V27.2209C43.0234 23.6408 43.8681 20.0593 45.4655 16.8656L46.3983 15L37.8671 15Z" fill="#A0AEBB"/>
<path d="M24.9766 36.9141C24.9766 39.0465 26.7113 40.7812 28.8438 40.7812H31.4219V56.4219C31.4219 57.8458 32.5761 59 34 59C35.4239 59 36.5781 57.8458 36.5781 56.4219V40.7812H39.1562C41.2887 40.7812 43.0234 39.0465 43.0234 36.9141V33.0469H24.9766V36.9141Z" fill="#A0AEBB"/>
<path d="M53.3359 30.4688H50.7578V27.8906H48.1797V30.4688H45.6016V33.0469H48.1797V35.625H50.7578V33.0469H53.3359V30.4688Z" fill="#A0AEBB"/>
<path d="M19.8203 22.7344H17.2422V25.3125H14.6641V27.8906H17.2422V30.4688H19.8203V27.8906H22.3984V25.3125H19.8203V22.7344Z" fill="#A0AEBB"/>
</svg>
