<svg width="68" height="68" viewBox="0 0 68 68" fill="none" xmlns="http://www.w3.org/2000/svg">
<rect x="2" y="2" width="64" height="64" rx="32" stroke="#A0AEBB" stroke-width="4"/>
<path d="M33.8579 16V41.1659L38.7402 35.9083H53.7051V16H33.8579ZM42.6626 27.0058V24.8047H49.3028V27.0058H42.6626ZM49.3028 29.207V31.4082H42.6626V29.207H49.3028ZM42.6626 22.6035V20.4023H49.3028V22.6035H42.6626ZM38.2602 27.0058V24.8047H40.4614V27.0058H38.2602ZM40.4614 29.207V31.4082H38.2602V29.207H40.4614ZM38.2602 22.6035V20.4023H40.4614V22.6035H38.2602Z" fill="#A0AEBB"/>
<path d="M21.7515 39.259H19V48.0637H21.7515V39.259Z" fill="#A0AEBB"/>
<path d="M28.9052 25.5384V33.2425H26.704V25.5384H22.852C20.7281 25.5384 19 27.2664 19 29.3904V37.0578H21.7515V29.3904H23.9526V53.5666H26.7041V39.2223H28.9053V53.5666H31.6567C31.6567 53.31 31.6567 30.8166 31.6566 25.5384H28.9052Z" fill="#A0AEBB"/>
<path d="M31.4733 19.6686C31.4733 17.6457 29.8276 16 27.8047 16C25.7818 16 24.1361 17.6457 24.1361 19.6686C24.1361 21.6915 25.7818 23.3372 27.8047 23.3372C29.8276 23.3372 31.4733 21.6915 31.4733 19.6686Z" fill="#A0AEBB"/>
</svg>
