<svg width="68" height="68" viewBox="0 0 68 68" fill="none" xmlns="http://www.w3.org/2000/svg">
<rect x="2" y="2" width="64" height="64" rx="32" stroke="#A0AEBB" stroke-width="4"/>
<path d="M30.1237 41.9528C30.1188 41.8443 30.1365 41.736 30.1758 41.6348C30.215 41.5336 30.275 41.4416 30.3517 41.3649L34.4591 37.2572L30.1345 33.5506C30.0189 33.4516 29.9348 33.3209 29.8925 33.1747C29.8502 33.0285 29.8515 32.8731 29.8963 32.7277L32.5083 24.2383L29.3289 21.0584C27.6096 19.3447 25.2806 18.3833 22.8531 18.3853C20.4256 18.3872 18.0981 19.3524 16.3816 21.0689C14.6651 22.7854 13.7 25.1129 13.698 27.5403C13.696 29.9678 14.6575 32.2969 16.3712 34.0161L34.3458 51.9907L35.3492 46.6385L30.404 42.5174C30.3206 42.4479 30.2526 42.3618 30.2044 42.2646C30.1561 42.1674 30.1286 42.0612 30.1237 41.9528ZM27.5213 26.4161L26.4164 27.521L25.4063 26.5109L24.3963 27.521L23.2914 26.4161L24.3015 25.4061L23.0626 24.1671L22.0525 25.1773L20.9476 24.0724L21.9578 23.0623L20.9476 22.0523L22.0525 20.9474L23.0626 21.9575L24.0726 20.9474L25.1775 22.0523L24.1674 23.0623L25.4063 24.3013L26.4164 23.2911L27.5213 24.396L26.5111 25.4061L27.5213 26.4161Z" fill="#A0AEBB"/>
<path d="M45.3698 18.3749C44.1661 18.3716 42.9737 18.6071 41.8616 19.0678C40.7495 19.5284 39.7398 20.205 38.891 21.0585L33.9722 25.9775L32.2241 31.6579L37.8073 36.4431C37.889 36.5131 37.9554 36.5993 38.0023 36.6962C38.0491 36.7932 38.0754 36.8987 38.0795 37.0063C38.0837 37.1138 38.0655 37.2211 38.0262 37.3213C37.987 37.4215 37.9274 37.5126 37.8513 37.5887L33.7853 41.6549L37.2056 44.5052C37.3124 44.5942 37.3935 44.7101 37.4405 44.8409C37.4876 44.9717 37.4989 45.1127 37.4732 45.2493L36.7482 49.1165L51.8486 34.0162C53.13 32.7348 54.0026 31.1022 54.3561 29.3249C54.7097 27.5476 54.5282 25.7053 53.8347 24.0311C53.1413 22.3569 51.9669 20.9259 50.4602 19.9191C48.9534 18.9123 47.182 18.3749 45.3698 18.3749ZM50.8548 30.6461L49.8447 29.6359L48.6058 30.8749L49.6159 31.885L48.511 32.9899L47.501 31.9797L46.262 33.2187L47.2722 34.2287L46.1673 35.3336L45.1572 34.3234L44.1472 35.3336L43.0423 34.2287L44.0524 33.2187L43.0423 32.2086L44.1472 31.1037L45.1572 32.1139L46.3962 30.8749L45.386 29.8649L46.4909 28.76L47.501 29.7701L48.7399 28.5312L47.7298 27.5211L48.8347 26.4162L49.8447 27.4264L50.8548 26.4162L51.9597 27.5211L50.9495 28.5312L51.9597 29.5412L50.8548 30.6461Z" fill="#A0AEBB"/>
</svg>
