<svg width="68" height="68" viewBox="0 0 68 68" fill="none" xmlns="http://www.w3.org/2000/svg">
<rect x="2" y="2" width="64" height="64" rx="32" stroke="#A0AEBB" stroke-width="4"/>
<path d="M28.3728 45.168L28.3645 45.151L30.3896 43.5652L26.6311 36.7274L26.6205 36.7081C22.0711 38.5355 19.0002 42.6036 19.0002 50.4524H30.9635L28.3645 45.1748L28.3728 45.168Z" fill="#A0AEBB"/>
<path d="M37.6401 43.5488L39.6562 45.1512L39.6478 45.1682L39.6562 45.175L37.0574 50.4526H49C49 42.6037 45.9302 38.5369 41.3822 36.7092L41.3716 36.7284L37.6401 43.5488Z" fill="#A0AEBB"/>
<path d="M33.9999 39.2844C33.4698 39.2844 32.9481 39.2484 32.4363 39.1801L33.273 40.693L32.6077 50.4525H35.3921L34.7269 40.693L35.5636 39.1801C35.0518 39.2484 34.53 39.2844 33.9999 39.2844Z" fill="#A0AEBB"/>
<path d="M43.7801 27.5698C43.0706 27.6682 41.937 27.8062 40.5869 27.931V29.4029C40.5869 30.8435 39.3888 32.0114 37.9481 32.0114C36.5074 32.0114 35.3093 30.8435 35.3093 29.4029V28.2227C34.9411 28.2318 34.429 28.2373 33.9592 28.2373C33.4894 28.2373 32.9773 28.2318 32.6091 28.2227V29.4029C32.6091 30.8435 31.411 32.0114 29.9703 32.0114C28.5296 32.0114 27.3315 30.8435 27.3315 29.4029V27.931C25.9814 27.8063 24.8922 27.6689 24.1825 27.5705C24.1814 27.5704 24.1904 27.5696 24.1893 27.5696C24.2097 32.9581 28.607 37.3197 34.0001 37.3197C34.0012 37.3197 34.0023 37.3197 34.0033 37.3197C39.395 37.3197 43.7598 32.9571 43.7801 27.5698Z" fill="#A0AEBB"/>
<path d="M24.4016 25.612C25.9429 25.8262 29.6795 26.2735 34.0002 26.2735C38.321 26.2735 42.0576 25.8262 43.5989 25.612C43.5979 25.6073 43.5972 25.6024 43.5963 25.5976C44.315 25.4918 44.9632 25.3743 45.5284 25.2469C47.1194 24.8882 48.0534 24.4518 48.0534 23.9811C48.0534 23.428 46.7648 22.9222 44.6346 22.5344C44.2996 22.4734 43.943 22.4154 43.5681 22.3604C43.551 21.6705 43.4607 21.0008 43.3033 20.3606C42.4026 16.6974 39.3407 14 35.6492 14H32.3514C28.5862 14 25.387 16.8061 24.5308 20.5812C24.3996 21.1599 24.324 21.7609 24.3094 22.3785C23.9791 22.428 23.6642 22.48 23.3658 22.5345C21.2356 22.9222 19.947 23.428 19.947 23.9811C19.947 24.4518 20.881 24.8882 22.4721 25.2469C23.0373 25.3743 23.6854 25.4918 24.4042 25.5976C24.4033 25.6024 24.4026 25.6073 24.4016 25.612Z" fill="#A0AEBB"/>
</svg>
