<svg width="68" height="68" viewBox="0 0 68 68" fill="none" xmlns="http://www.w3.org/2000/svg">
<rect x="2" y="2" width="64" height="64" rx="32" stroke="#A0AEBB" stroke-width="4"/>
<path d="M37.918 31.6094H47.2148C47.765 31.6094 48.2109 31.1634 48.2109 30.6133V28.6211C48.2109 26.8616 47.4014 25.288 46.1355 24.252C45.1917 25.1095 43.939 25.6328 42.5664 25.6328C41.1938 25.6328 39.9411 25.1095 38.9973 24.252C37.7314 25.288 36.9219 26.8616 36.9219 28.6211V30.6133C36.9219 31.1634 37.3679 31.6094 37.918 31.6094Z" fill="#A0AEBB"/>
<path d="M42.5664 23.6406C44.4002 23.6406 45.8867 22.1541 45.8867 20.3203C45.8867 18.4866 44.4002 17 42.5664 17C40.7326 17 39.2461 18.4866 39.2461 20.3203C39.2461 22.1541 40.7326 23.6406 42.5664 23.6406Z" fill="#A0AEBB"/>
<path d="M40.5742 33.7344C40.0241 33.7344 39.5781 34.1804 39.5781 34.7305V46.0195C39.5781 46.5696 40.0241 47.0156 40.5742 47.0156H44.5586C45.1087 47.0156 45.5547 46.5696 45.5547 46.0195V34.7305C45.5547 34.1804 45.1087 33.7344 44.5586 33.7344H40.5742Z" fill="#A0AEBB"/>
<path d="M30.2812 38.0508V46.0195C30.2812 46.5696 30.7272 47.0156 31.2773 47.0156H35.2617C35.8118 47.0156 36.2578 46.5696 36.2578 46.0195V38.0508C36.2578 37.5007 35.8118 37.0547 35.2617 37.0547H31.2773C30.7272 37.0547 30.2812 37.5007 30.2812 38.0508Z" fill="#A0AEBB"/>
<path d="M25.9648 40.375H21.9805C21.4304 40.375 20.9844 40.821 20.9844 41.3711V46.0195C20.9844 46.5696 21.4304 47.0156 21.9805 47.0156H25.9648C26.515 47.0156 26.9609 46.5696 26.9609 46.0195V41.3711C26.9609 40.821 26.515 40.375 25.9648 40.375Z" fill="#A0AEBB"/>
<path d="M50.0039 49.0078H18.9922V17.9961C18.9922 17.446 18.5462 17 17.9961 17C17.446 17 17 17.446 17 17.9961V50.0039C17 50.554 17.446 51 17.9961 51H50.0039C50.554 51 51 50.554 51 50.0039C51 49.4538 50.554 49.0078 50.0039 49.0078Z" fill="#A0AEBB"/>
<path d="M21.9805 34.5977C22.2354 34.5977 22.4904 34.5004 22.6848 34.3059L25.3008 31.6899L26.9207 33.3098C27.3097 33.6988 27.9404 33.6988 28.3294 33.3098L32.9375 28.7016V30.2812C32.9375 30.8314 33.3835 31.2773 33.9336 31.2773C34.4837 31.2773 34.9297 30.8314 34.9297 30.2812V26.2969C34.9297 25.7468 34.4837 25.3008 33.9336 25.3008H29.9493C29.3991 25.3008 28.9532 25.7468 28.9532 26.2969C28.9532 26.847 29.3991 27.293 29.9493 27.293H31.5289L27.625 31.1968L26.0051 29.5769C25.6162 29.1879 24.9855 29.1879 24.5964 29.5769L21.2761 32.8972C20.8871 33.2861 20.8871 33.9169 21.2761 34.3059C21.4706 34.5004 21.7256 34.5977 21.9805 34.5977Z" fill="#A0AEBB"/>
</svg>
