<svg width="68" height="68" viewBox="0 0 68 68" fill="none" xmlns="http://www.w3.org/2000/svg">
<rect x="2" y="2" width="64" height="64" rx="32" stroke="#A0AEBB" stroke-width="4"/>
<g clip-path="url(#clip0_130_34004)">
<path d="M36.9903 17.8054C36.9903 17.2235 36.5184 16.752 35.9368 16.752H20.0534C19.4716 16.752 19 17.2235 19 17.8054V24.7038H36.9903V17.8054ZM28.4451 21.7814H21.9744C21.392 21.7814 20.921 21.3101 20.921 20.7277C20.921 20.1464 21.392 19.6743 21.9744 19.6743H28.4451C29.0264 19.6743 29.4985 20.1464 29.4985 20.7277C29.4985 21.3101 29.0264 21.7814 28.4451 21.7814ZM33.7061 21.7814H32.5683C31.9869 21.7814 31.5148 21.3101 31.5148 20.7277C31.5148 20.1464 31.9869 19.6743 32.5683 19.6743H33.7061C34.2885 19.6743 34.7595 20.1464 34.7595 20.7277C34.7595 21.3101 34.2885 21.7814 33.7061 21.7814Z" fill="#A0AEBB"/>
<path d="M32.9215 42.8379C31.8366 42.8379 30.9573 41.9584 30.9573 40.8734V38.6288C30.9573 37.8597 31.4019 37.1919 32.0478 36.8701H19V43.7685C19 44.3504 19.4716 44.822 20.0534 44.822H34.0967L34.9058 44.0129C34.7181 43.6329 34.5552 43.2388 34.419 42.8379H32.9215ZM28.4451 42.2339H21.9744C21.392 42.2339 20.921 41.7618 20.921 41.1805C20.921 40.5989 21.392 40.1268 21.9744 40.1268H28.4451C29.0264 40.1268 29.4985 40.5989 29.4985 41.1805C29.4985 41.7618 29.0264 42.2339 28.4451 42.2339Z" fill="#A0AEBB"/>
<path d="M33.8473 34.4311C33.081 33.6655 33.081 32.4188 33.8473 31.6532L35.4346 30.066C35.8594 29.6404 36.4332 29.4516 36.9903 29.4994V26.8109H19V34.7633H34.1795L33.8473 34.4311ZM28.4451 32.0081H21.9744C21.392 32.0081 20.921 31.536 20.921 30.9544C20.921 30.3723 21.392 29.901 21.9744 29.901H28.4451C29.0264 29.901 29.4985 30.3723 29.4985 30.9544C29.4985 31.536 29.0264 32.0081 28.4451 32.0081Z" fill="#A0AEBB"/>
<path d="M52.5413 38.7714C51.6908 38.7714 50.9399 38.2237 50.6724 37.4082C50.5538 37.0458 50.4056 36.6891 50.2328 36.3492C49.8472 35.5905 49.9954 34.6741 50.6021 34.0674L51.627 33.0417L50.2419 31.6569L49.2165 32.6815C48.6096 33.2885 47.6931 33.4364 46.9345 33.0508C46.5946 32.878 46.2378 32.7301 45.8755 32.6113C45.0602 32.3437 44.5123 31.5928 44.5123 30.7423V29.2836H42.5528V30.7423C42.5528 31.5928 42.0049 32.3437 41.1896 32.6113C40.827 32.7298 40.4703 32.878 40.1298 33.0508C39.3784 33.4329 38.4614 33.2943 37.8486 32.6815C36.8558 31.6895 37.0395 31.8732 36.8232 31.6569L35.4381 33.0417L36.463 34.0674C37.1003 34.7048 37.1431 35.7369 36.8323 36.3492C36.6614 36.6851 36.514 37.0378 36.3919 37.4082C36.1249 38.2237 35.3743 38.7714 34.523 38.7714H33.0642V40.7308H34.523C35.3743 40.7308 36.1249 41.2788 36.3927 42.0943C36.5113 42.4566 36.6595 42.8134 36.8323 43.1538C37.0058 43.494 37.2584 44.6425 36.463 45.4351C35.9206 45.9774 36.1471 45.7507 35.4381 46.4605C36.084 47.1067 36.7385 47.7609 36.8232 47.8455C37.8766 46.7929 37.7041 46.9654 37.8486 46.821C38.4638 46.2044 39.3864 46.0722 40.1298 46.4514C40.4703 46.6242 40.8265 46.7724 41.1896 46.8917C42.0049 47.1587 42.5528 47.9094 42.5528 48.7607V50.2194H44.5123V48.7607C44.5123 47.9094 45.0602 47.1585 45.8755 46.8917C46.2378 46.7724 46.5946 46.6242 46.9345 46.4514C47.6931 46.0658 48.6096 46.214 49.2165 46.821L50.2419 47.8455L51.627 46.4605L50.6021 45.4351C49.9954 44.8289 49.8472 43.9117 50.2328 43.1538C50.4056 42.8134 50.5538 42.4566 50.6724 42.0943C50.9399 41.2788 51.6908 40.7308 52.5413 40.7308H54.0001V38.7714H52.5413ZM48.3652 40.0291C48.2266 42.4948 46.2164 44.4791 43.7491 44.587C40.9736 44.7082 38.6921 42.4828 38.6921 39.7511C38.6921 37.0926 40.8542 34.9107 43.5325 34.9107C46.2934 34.9107 48.5222 37.2346 48.3652 40.0291Z" fill="#A0AEBB"/>
<path d="M43.5324 37.0178C42.0253 37.0178 40.7988 38.244 40.7988 39.7511C40.7988 41.2585 42.0253 42.4847 43.5324 42.4847C45.0395 42.4847 46.266 41.2585 46.266 39.7511C46.266 38.244 45.0395 37.0178 43.5324 37.0178Z" fill="#A0AEBB"/>
</g>
<defs>
<clipPath id="clip0_130_34004">
<rect width="35" height="35" fill="white" transform="translate(19 16)"/>
</clipPath>
</defs>
</svg>
