<svg width="68" height="68" viewBox="0 0 68 68" fill="none" xmlns="http://www.w3.org/2000/svg">
<rect x="2" y="2" width="64" height="64" rx="32" stroke="#A0AEBB" stroke-width="4"/>
<g clip-path="url(#clip0_130_34001)">
<path d="M23.2449 41.604H16.1403V51.6719H23.2449V41.604Z" fill="#A0AEBB"/>
<path d="M51.86 41.604H44.7554V51.6719H51.86V41.604Z" fill="#A0AEBB"/>
<path d="M38.0289 18.1378V14.3282H38.0288H29.9708V18.1378H23.3042V32.6615V32.8624H44.6955V32.6615V18.1378H38.0289ZM35.6851 18.1378H32.3145V16.672H35.6851V18.1378Z" fill="#A0AEBB"/>
<path d="M18.7619 24.3281H14V26.6719H18.7619V24.3281Z" fill="#A0AEBB"/>
<path d="M16.555 18.3347L15.2549 20.285L18.1124 22.1899L19.4125 20.2396L16.555 18.3347Z" fill="#A0AEBB"/>
<path d="M18.1113 28.7521L15.2538 30.657L16.5539 32.6073L19.4114 30.7024L18.1113 28.7521Z" fill="#A0AEBB"/>
<path d="M54.0002 24.3281H49.2383V26.6719H54.0002V24.3281Z" fill="#A0AEBB"/>
<path d="M51.4466 18.3354L48.5891 20.2402L49.8892 22.1905L52.7467 20.2857L51.4466 18.3354Z" fill="#A0AEBB"/>
<path d="M49.8876 28.7484L48.5875 30.6987L51.445 32.6036L52.7451 30.6533L49.8876 28.7484Z" fill="#A0AEBB"/>
<path d="M25.5884 35.9949V51.6718H42.4112V35.9949H25.5884ZM35.8771 47.5246H35.8771H33.3881V42.0194H32.1226V40.1421H35.8771V47.5246Z" fill="#A0AEBB"/>
</g>
<defs>
<clipPath id="clip0_130_34001">
<rect width="40" height="40" fill="white" transform="translate(14 13)"/>
</clipPath>
</defs>
</svg>
