<svg width="68" height="68" viewBox="0 0 68 68" fill="none" xmlns="http://www.w3.org/2000/svg">
<rect x="2" y="2" width="64" height="64" rx="32" stroke="#A0AEBB" stroke-width="4"/>
<g clip-path="url(#clip0_130_28722)">
<path d="M53.8946 43.3862C53.2245 43.1102 52.4541 43.2607 51.9417 43.775L49.625 46.0916L41.0376 37.5041C40.337 36.8036 39.2047 36.8036 38.5042 37.5041L32.3408 43.6675L14.7341 32.7687C13.8902 32.2474 12.7884 32.5072 12.267 33.3492C11.7474 34.1913 12.0054 35.295 12.8475 35.8146L31.66 47.4604C32.3677 47.8994 33.2833 47.7937 33.8691 47.2042L39.7691 41.3042L47.0916 48.625L44.775 50.9416C44.2626 51.454 44.1085 52.2245 44.3862 52.8945C44.6621 53.5628 45.3179 54 46.0417 54H53.2084C54.1992 54 55 53.1973 55 52.2083V45.0417C55 44.3178 54.5647 43.6639 53.8946 43.3862Z" fill="#A0AEBB"/>
<path fill-rule="evenodd" clip-rule="evenodd" d="M32.0273 40.8151L36.9204 35.9221C38.3573 34.4852 40.6094 34.3777 42.1879 35.5691C43.4868 33.3081 44.2501 30.7299 44.2501 28.0209C44.2501 19.6233 37.4185 12.7917 29.0209 12.7917C20.6234 12.7917 13.7917 19.6233 13.7917 28.0209C13.7917 28.4867 13.824 28.9507 13.8652 29.4112L32.0273 40.8151ZM29.9236 35.5235L28.8361 31.1684L26.5711 28.5889L25.404 28.589V19.2105L26.4674 19.2103L28.6255 18.0548L35.9689 18.0573V19.9206H33.6251V20.9439L37.1282 20.946V22.8098H33.6251V23.8331L38.2871 23.8349V25.7004L33.6251 25.6989V26.7222H37.128V28.5889L31.2402 28.5881L32.1512 34.0616C32.212 34.4265 32.1092 34.7975 31.8694 35.0797C31.6295 35.3618 31.2792 35.5235 30.9083 35.5235H29.9236ZM24.4213 18.0547H20.8184V28.5359H24.4213V18.0547ZM23.152 20.3546H22.0877V19.3364H23.152V20.3546Z" fill="#A0AEBB"/>
</g>
<defs>
<clipPath id="clip0_130_28722">
<rect width="43" height="43" fill="white" transform="translate(12 11)"/>
</clipPath>
</defs>
</svg>
