<svg width="68" height="68" viewBox="0 0 68 68" fill="none" xmlns="http://www.w3.org/2000/svg">
<rect x="2" y="2" width="64" height="64" rx="32" stroke="#A0AEBB" stroke-width="4"/>
<path d="M55 27.5363V24.7163H54.8441V22.0282H54.6907V21.0763H53.5924V22.0258C53.5924 22.0258 27.0162 22.2129 22.3762 22.0258C21.6664 22.0258 17.6139 22.4263 21.6784 28.6753C21.6784 28.6753 23.5248 31.4761 20.995 34.6006C18.4987 37.6795 17.3741 43.9166 17.0815 45.8013H17V46.9236H28.5173V45.8013V44.7702C23.5416 45.6862 31.9559 34.1066 31.5818 36.0561C31.8528 36.1257 32.1333 36.1688 32.4259 36.1688H35.4233C37.2745 36.1688 39.7324 34.1881 39.7324 32.3345C39.7324 31.5312 39.4494 30.7951 38.9794 30.2172H53.8106L54.2902 28.4523H54.9185V27.5986H54.8154L54.8417 27.5363H55ZM35.4281 34.5287H32.4307C32.2101 34.5287 31.9967 34.4927 31.7952 34.4327C31.9703 33.404 32.1046 32.4832 32.2005 31.7662C32.4523 32.5983 32.9438 33.4688 33.9102 33.8452C33.9773 33.8716 34.0469 33.8836 34.1164 33.8836C34.3418 33.8836 34.5576 33.7445 34.6464 33.5239C34.7591 33.229 34.6128 32.9005 34.3202 32.7854C33.3203 32.3969 33.1213 30.8862 33.0829 30.2244H35.9724C36.9148 30.469 37.6174 31.325 37.6174 32.3417C37.6174 33.5455 36.6343 34.5287 35.4281 34.5287ZM50.806 28.4571H36.0012L38.5718 27.601H50.806V28.4571Z" fill="#A0AEBB"/>
</svg>
