<svg width="68" height="68" viewBox="0 0 68 68" fill="none" xmlns="http://www.w3.org/2000/svg">
<rect x="2" y="2" width="64" height="64" rx="32" stroke="#A0AEBB" stroke-width="4"/>
<g clip-path="url(#clip0_130_28724)">
<path d="M28.2935 24.9108L26.3455 21.8095L16.1555 38.0324H20.1761V46.6757C21.5404 43.5302 23.9171 40.9223 26.8932 39.265C25.324 37.4573 24.4674 35.1717 24.4674 32.7542C24.4674 30.0967 25.5023 27.5984 27.3814 25.7193C27.6713 25.4295 27.9759 25.1598 28.2935 24.9108Z" fill="#A0AEBB"/>
<path d="M41.6544 14L36.0408 22.9371C38.0808 23.2701 39.961 24.2288 41.4515 25.7192C43.3306 27.5983 44.3654 30.0967 44.3654 32.7542C44.3654 35.1716 43.5087 37.4572 41.9395 39.265C44.3797 40.6238 46.4169 42.6214 47.8237 45.0309V30.2229H51.8442L41.6544 14Z" fill="#A0AEBB"/>
<path d="M35.3173 47.6743H33.7395L32.2146 54H36.8424L35.3173 47.6743Z" fill="#A0AEBB"/>
<path d="M29.2144 41.2383C29.0589 41.1426 28.9057 41.0425 28.755 40.9378C24.3179 43.0588 21.2452 47.5915 21.2452 52.8286V54H29.8048L31.5856 46.6133L29.2144 41.2383Z" fill="#A0AEBB"/>
<path d="M40.0777 40.9378C39.944 41.0308 39.8083 41.1201 39.6707 41.2061L37.3939 46.2908L39.2524 54.0001H47.5874V52.8287C47.5874 47.5914 44.5147 43.0589 40.0777 40.9378Z" fill="#A0AEBB"/>
<path d="M34.4168 42.703C33.705 42.703 33.0048 42.628 32.3247 42.4832L33.5813 45.3314H35.2571L36.5349 42.4778C35.8465 42.6262 35.1376 42.703 34.4168 42.703Z" fill="#A0AEBB"/>
<path d="M34.4163 40.3606C38.6172 40.3606 42.0227 36.9551 42.0227 32.7542C42.0227 28.5534 38.6172 25.1479 34.4163 25.1479C30.2154 25.1479 26.8099 28.5534 26.8099 32.7542C26.8099 36.9551 30.2154 40.3606 34.4163 40.3606Z" fill="#A0AEBB"/>
</g>
<defs>
<clipPath id="clip0_130_28724">
<rect width="40" height="40" fill="white" transform="translate(14 14)"/>
</clipPath>
</defs>
</svg>
