<svg width="68" height="68" viewBox="0 0 68 68" fill="none" xmlns="http://www.w3.org/2000/svg">
<rect x="2" y="2" width="64" height="64" rx="32" stroke="#A0AEBB" stroke-width="4"/>
<path d="M38.3497 23.9097H16V24.008C16.405 25.5155 17.3899 26.8461 18.7482 27.6721L34 36.9482L42.7918 31.6011L38.3498 27.1591V23.9097H38.3497Z" fill="#A0AEBB"/>
<path d="M46.5989 31.7544L41.4989 34.8562L51.9998 44.4672V29.1982L49.4436 31.7544H46.5989Z" fill="#A0AEBB"/>
<path d="M17.6521 29.4745C17.0503 29.1084 16.4873 28.6666 16 28.1628V44.4673L26.5009 34.8562L17.6521 29.4745Z" fill="#A0AEBB"/>
<path d="M33.9997 39.417L28.3776 35.9977L17.5631 45.8958H50.4363L39.6218 35.9977L33.9997 39.417Z" fill="#A0AEBB"/>
<path d="M43.7895 18.1041L40.3887 21.5049V26.3144L43.7895 29.7153H48.599L51.9998 26.3145V21.505L48.599 18.1041H43.7895ZM46.2646 27.1145C45.6135 27.1145 45.1627 26.6636 45.1627 26.1127C45.1627 25.5533 45.6135 25.1276 46.2646 25.1276C46.9157 25.1276 47.3666 25.5533 47.3666 26.1127C47.3665 26.6637 46.9157 27.1145 46.2646 27.1145ZM47.0159 24.0905H45.5132L45.1375 20.5545H47.3915L47.0159 24.0905Z" fill="#A0AEBB"/>
</svg>
