<svg width="68" height="68" viewBox="0 0 68 68" fill="none" xmlns="http://www.w3.org/2000/svg">
<rect x="2" y="2" width="64" height="64" rx="32" stroke="#A0AEBB" stroke-width="4"/>
<g clip-path="url(#clip0_130_32361)">
<path d="M45.1441 33.0409C45.3692 35.1773 45.079 37.388 44.1899 39.4762V39.477L47.2762 43.4629C47.5524 43.8197 48.0703 43.8687 48.4123 43.5744C51.1836 41.1895 53.0173 37.7471 53.289 33.8733C53.3206 33.4223 52.9578 33.041 52.5057 33.041H45.1441V33.0409Z" fill="#A0AEBB"/>
<path d="M37.3953 12.785V22.5314C40.0099 23.6629 42.1804 25.6333 43.5661 28.1004H52.526C52.969 28.1004 53.3276 27.7337 53.3105 27.291C52.9915 19.0056 46.3856 12.4155 38.2132 12.001C37.7674 11.9784 37.3953 12.3386 37.3953 12.785Z" fill="#A0AEBB"/>
<path d="M32.4022 47.3727C25.2688 47.4465 19.3737 41.6628 19.316 34.5292C19.2579 27.3398 25.09 21.4719 32.2663 21.4719V17.6496C32.2663 17.2023 31.8929 16.8445 31.4461 16.865C22.12 17.2934 14.689 24.9901 14.689 34.4227C14.689 44.1491 22.6556 52.0622 32.3817 51.9997C36.0496 51.9761 39.4498 50.8295 42.2567 48.8868C42.6259 48.6312 42.7036 48.1168 42.4287 47.7617L40.0881 44.7385C37.9466 46.3655 35.2862 47.3429 32.4022 47.3727Z" fill="#A0AEBB"/>
<path d="M21.6694 34.4227C21.6694 40.2656 26.4231 45.0193 32.266 45.0193C38.1083 45.0193 42.8626 40.2665 42.8626 34.4227C42.8626 28.58 38.1083 23.8261 32.266 23.8261C26.4231 23.8261 21.6694 28.5798 21.6694 34.4227ZM33.4431 27.3832V28.5061C34.6498 28.5061 35.718 29.0193 36.4712 29.8228C36.9154 30.2967 36.891 31.0422 36.4171 31.4864C35.946 31.9277 35.2042 31.9108 34.7535 31.4322C34.4161 31.0728 33.9563 30.8641 33.4909 30.8602C32.5385 30.8602 31.8946 30.8602 30.9462 30.8602C30.2865 30.8602 29.7534 31.3946 29.7534 32.0529C29.7534 32.7105 30.2886 33.2456 30.9469 33.2456H33.5859C35.5414 33.2456 37.1327 34.837 37.1327 36.7925C37.1327 38.6197 35.7273 40.3401 33.4431 40.3401V41.4622C33.4431 42.112 32.9165 42.6393 32.266 42.6393C31.6163 42.6393 31.089 42.112 31.089 41.4622V40.3401C30.2599 40.3401 29.443 40.2504 28.4861 39.5868C27.9525 39.2164 27.8199 38.4827 28.1903 37.9491C28.5607 37.4148 29.2944 37.2821 29.828 37.6525C30.1105 37.8503 30.4613 37.9815 30.8104 37.986H33.5859C34.2413 37.986 34.7786 37.4568 34.7786 36.7925C34.7786 36.1349 34.2435 35.5997 33.5859 35.5997C32.4181 35.5997 32.1774 35.5997 30.9469 35.5997C28.9907 35.5997 27.3993 34.0084 27.3993 32.0529C27.3993 30.2199 28.8098 28.5061 31.089 28.5061V27.3832C31.089 26.7334 31.6163 26.2061 32.266 26.2061C32.9165 26.2061 33.4431 26.7334 33.4431 27.3832Z" fill="#A0AEBB"/>
</g>
<defs>
<clipPath id="clip0_130_32361">
<rect width="40" height="40" fill="white" transform="translate(14 12)"/>
</clipPath>
</defs>
</svg>
