<svg width="68" height="68" viewBox="0 0 68 68" fill="none" xmlns="http://www.w3.org/2000/svg">
<rect x="2" y="2" width="64" height="64" rx="32" stroke="#A0AEBB" stroke-width="4"/>
<path d="M34 19.8782H18V34.89H34V19.8782Z" fill="#A0AEBB"/>
<path d="M48.1221 44.271V36.765H43.1071L37.49 40.5222V36.765H18V44.271H26.9618V48.125H25.0846V50H41.0375V48.125H39.1603V44.271H48.1221ZM34.6248 41.4555H31.4973V39.5805H34.6248V41.4555Z" fill="#A0AEBB"/>
<path d="M35.875 18V34.89H39.365V37.0123L42.5378 34.89H46.4197H50V18H35.875ZM43.8757 32.0741H41.9993V30.1991H43.8757V32.0741ZM43.875 27.1376V28.3218H42V25.4012H42.9375C43.6846 25.4012 44.2924 24.7934 44.2924 24.0464C44.2924 23.2993 43.6846 22.6916 42.9375 22.6916C42.1904 22.6916 41.5826 23.2994 41.5826 24.0464H39.7076C39.7076 22.2655 41.1566 20.8166 42.9375 20.8166C44.7184 20.8166 46.1674 22.2655 46.1674 24.0464C46.1674 25.5015 45.2002 26.7349 43.875 27.1376Z" fill="#A0AEBB"/>
</svg>
