<svg width="68" height="68" viewBox="0 0 68 68" fill="none" xmlns="http://www.w3.org/2000/svg">
<rect x="2" y="2" width="64" height="64" rx="32" stroke="#A0AEBB" stroke-width="4"/>
<g clip-path="url(#clip0_130_32362)">
<path d="M49.4124 20.7965L53.4383 16.7707L51.2424 14.5748L47.2165 18.6007V12.0129L41.7895 17.4398V24.0277L34.422 31.3953C34.1595 31.3231 33.8833 31.2839 33.5979 31.2839C31.8828 31.2839 30.4924 32.6743 30.4924 34.3893C30.4924 36.1043 31.8828 37.4948 33.5979 37.4948C35.313 37.4948 36.7034 36.1044 36.7034 34.3893C36.7034 34.1186 36.6686 33.8561 36.6034 33.6056L43.9854 26.2236H50.5731L56.0001 20.7965H49.4124Z" fill="#A0AEBB"/>
<path d="M43.4364 31.1644L39.795 34.8059C39.794 34.8193 39.7915 34.8311 39.7904 34.8443C39.5572 38.0618 36.8748 40.6003 33.5978 40.6003C30.1675 40.6003 27.3868 37.8195 27.3868 34.3894C27.3868 31.089 29.9615 28.3911 33.2116 28.1916C33.2203 28.1909 33.2278 28.1894 33.2367 28.1889L36.8619 24.5636C35.8357 24.2229 34.7384 24.038 33.5979 24.038C27.8809 24.038 23.2462 28.6725 23.2462 34.3896C23.2462 40.1065 27.8808 44.7412 33.5979 44.7412C39.3147 44.7412 43.9495 40.1066 43.9495 34.3896C43.9494 33.2633 43.7689 32.1794 43.4364 31.1644Z" fill="#A0AEBB"/>
<path d="M50.4557 29.329H46.07C46.7045 30.8913 47.0548 32.5992 47.0548 34.3893C47.0548 41.8215 41.0299 47.8464 33.5977 47.8464C26.1655 47.8464 20.1406 41.8214 20.1406 34.3892C20.1406 26.9571 26.1655 20.9321 33.5977 20.9321C35.3977 20.9321 37.1147 21.2863 38.6839 21.9275V17.539C37.0735 17.0536 35.3663 16.7915 33.5977 16.7915C23.8788 16.7915 16 24.6703 16 34.3892C16 44.1082 23.8788 51.987 33.5977 51.987C43.3167 51.987 51.1955 44.1082 51.1955 34.3892C51.1955 32.6301 50.9362 30.9318 50.4557 29.329Z" fill="#A0AEBB"/>
</g>
<defs>
<clipPath id="clip0_130_32362">
<rect width="40" height="40" fill="white" transform="translate(16 12)"/>
</clipPath>
</defs>
</svg>
